<mxfile host="app.diagrams.net" modified="2024-02-05T15:47:49.743Z" agent="Mozilla/5.0 (Windows NT 10.0; Win64; x64) AppleWebKit/537.36 (KHTML, like Gecko) Chrome/121.0.0.0 Safari/537.36" etag="luVEVX8xPyk3m2dvUQS0" version="23.1.1" type="device">
  <diagram name="Página-1" id="o9l73M0qAGIfmwW85PiR">
    <mxGraphModel dx="1050" dy="522" grid="1" gridSize="10" guides="1" tooltips="1" connect="1" arrows="1" fold="1" page="1" pageScale="1" pageWidth="827" pageHeight="1169" math="0" shadow="0">
      <root>
        <mxCell id="0" />
        <mxCell id="1" parent="0" />
        <mxCell id="iYwkZp6Y08F7poDPi8R--40" value="" style="edgeStyle=orthogonalEdgeStyle;rounded=0;orthogonalLoop=1;jettySize=auto;html=1;" parent="1" source="iYwkZp6Y08F7poDPi8R--2" target="iYwkZp6Y08F7poDPi8R--3" edge="1">
          <mxGeometry relative="1" as="geometry" />
        </mxCell>
        <mxCell id="iYwkZp6Y08F7poDPi8R--2" value="Inicio" style="ellipse;whiteSpace=wrap;html=1;" parent="1" vertex="1">
          <mxGeometry x="354" y="30" width="120" height="80" as="geometry" />
        </mxCell>
        <mxCell id="iYwkZp6Y08F7poDPi8R--39" value="" style="edgeStyle=orthogonalEdgeStyle;rounded=0;orthogonalLoop=1;jettySize=auto;html=1;" parent="1" source="iYwkZp6Y08F7poDPi8R--3" target="iYwkZp6Y08F7poDPi8R--7" edge="1">
          <mxGeometry relative="1" as="geometry" />
        </mxCell>
        <mxCell id="iYwkZp6Y08F7poDPi8R--3" value="X cantidad de botellas&lt;br&gt;(en este caso x = 99)" style="shape=parallelogram;perimeter=parallelogramPerimeter;whiteSpace=wrap;html=1;fixedSize=1;" parent="1" vertex="1">
          <mxGeometry x="239" y="180" width="350" height="60" as="geometry" />
        </mxCell>
        <mxCell id="iYwkZp6Y08F7poDPi8R--6" value="fin" style="ellipse;whiteSpace=wrap;html=1;" parent="1" vertex="1">
          <mxGeometry x="510" y="570" width="120" height="80" as="geometry" />
        </mxCell>
        <mxCell id="iYwkZp6Y08F7poDPi8R--38" value="" style="edgeStyle=orthogonalEdgeStyle;rounded=0;orthogonalLoop=1;jettySize=auto;html=1;" parent="1" source="iYwkZp6Y08F7poDPi8R--7" edge="1">
          <mxGeometry relative="1" as="geometry">
            <mxPoint x="414" y="460" as="targetPoint" />
          </mxGeometry>
        </mxCell>
        <mxCell id="iYwkZp6Y08F7poDPi8R--7" value="Mostrar mensaje&lt;br&gt;&quot;X botellas&quot;" style="rounded=0;whiteSpace=wrap;html=1;" parent="1" vertex="1">
          <mxGeometry x="354" y="350" width="120" height="60" as="geometry" />
        </mxCell>
        <mxCell id="H73MTmSkwMpFjLp9g_ue-3" value="" style="edgeStyle=orthogonalEdgeStyle;rounded=0;orthogonalLoop=1;jettySize=auto;html=1;" edge="1" parent="1" source="H73MTmSkwMpFjLp9g_ue-1" target="H73MTmSkwMpFjLp9g_ue-2">
          <mxGeometry relative="1" as="geometry" />
        </mxCell>
        <mxCell id="H73MTmSkwMpFjLp9g_ue-1" value="Restarle 1 a X" style="rounded=0;whiteSpace=wrap;html=1;" vertex="1" parent="1">
          <mxGeometry x="354" y="460" width="120" height="60" as="geometry" />
        </mxCell>
        <mxCell id="H73MTmSkwMpFjLp9g_ue-4" value="" style="edgeStyle=orthogonalEdgeStyle;rounded=0;orthogonalLoop=1;jettySize=auto;html=1;" edge="1" parent="1" source="H73MTmSkwMpFjLp9g_ue-2" target="iYwkZp6Y08F7poDPi8R--6">
          <mxGeometry relative="1" as="geometry" />
        </mxCell>
        <mxCell id="H73MTmSkwMpFjLp9g_ue-2" value="¿X es 0?" style="rhombus;whiteSpace=wrap;html=1;" vertex="1" parent="1">
          <mxGeometry x="374" y="570" width="80" height="80" as="geometry" />
        </mxCell>
        <mxCell id="H73MTmSkwMpFjLp9g_ue-5" value="si" style="text;html=1;strokeColor=none;fillColor=none;align=center;verticalAlign=middle;whiteSpace=wrap;rounded=0;" vertex="1" parent="1">
          <mxGeometry x="450" y="585" width="60" height="30" as="geometry" />
        </mxCell>
        <mxCell id="H73MTmSkwMpFjLp9g_ue-10" value="" style="curved=1;endArrow=classic;html=1;rounded=0;exitX=0;exitY=0.5;exitDx=0;exitDy=0;entryX=0;entryY=0.5;entryDx=0;entryDy=0;" edge="1" parent="1" source="H73MTmSkwMpFjLp9g_ue-2" target="iYwkZp6Y08F7poDPi8R--7">
          <mxGeometry width="50" height="50" relative="1" as="geometry">
            <mxPoint x="170" y="580" as="sourcePoint" />
            <mxPoint x="220" y="530" as="targetPoint" />
            <Array as="points">
              <mxPoint x="150" y="620" />
              <mxPoint x="150" y="610" />
              <mxPoint x="170" y="530" />
              <mxPoint x="160" y="400" />
              <mxPoint x="170" y="380" />
              <mxPoint x="250" y="390" />
            </Array>
          </mxGeometry>
        </mxCell>
        <mxCell id="H73MTmSkwMpFjLp9g_ue-11" value="No" style="text;html=1;strokeColor=none;fillColor=none;align=center;verticalAlign=middle;whiteSpace=wrap;rounded=0;" vertex="1" parent="1">
          <mxGeometry x="294" y="585" width="60" height="30" as="geometry" />
        </mxCell>
      </root>
    </mxGraphModel>
  </diagram>
</mxfile>
